<?xml version="1.0" standalone="no"?><!DOCTYPE svg PUBLIC "-//W3C//DTD SVG 1.1//EN" "http://www.w3.org/Graphics/SVG/1.1/DTD/svg11.dtd"><svg t="1631869458599" class="icon" viewBox="0 0 1137 1024" version="1.1" xmlns="http://www.w3.org/2000/svg" p-id="9592" xmlns:xlink="http://www.w3.org/1999/xlink" width="71.0625" height="64"><defs><style type="text/css"></style></defs><path d="M223.009886 807.253574a135.16785 135.16785 0 0 1-121.912754-147.455836 135.62296 135.62296 0 0 1 133.973185-121.855865h86.18657V440.548204H235.070317C106.103349 439.75176 0.859021 543.004979 0.005689 671.403058c-0.853332 124.643417 97.735003 227.839747 223.004197 233.52863V995.555587l140.287844-138.922512-140.344733-138.922512v89.486122z m420.067088-72.931474h-148.479835c-67.81148 0-122.766086 54.670161-122.766085 122.140308 0 67.527036 54.954606 122.140309 122.822974 122.140309h148.422946c67.868369 0 122.822975-54.613273 122.822975-122.140309a122.595419 122.595419 0 0 0-122.879863-122.140308z m0 146.886948h-148.479835a24.860417 24.860417 0 0 1-1.535998-49.550168h150.129611a24.860417 24.860417 0 0 1 2.389331 49.550168h-2.503109z m259.583712-807.821325h-86.186571V170.667615h86.186571c36.067515 0 70.71281 14.165318 96.255893 39.423956a134.257629 134.257629 0 0 1 0.284444 190.577566l-0.284444 0.341333a136.021182 136.021182 0 0 1-84.366128 38.968846V350.15186L774.433273 489.245039l140.287844 138.922512V537.60054c128.796301-5.80266 228.693079-114.34654 222.83353-242.460175-5.688883-124.529639-109.340323-222.492197-234.95085-221.638864z m-259.583712 293.830785h-148.479835c-67.81148 0-122.766086 54.670161-122.766085 122.140308 0 67.527036 54.954606 122.140309 122.822974 122.140309h148.422946c67.868369 0 122.822975-54.613273 122.822975-122.140309a122.538531 122.538531 0 0 0-122.879863-122.140308z m0 146.886947h-148.479835a24.860417 24.860417 0 0 1-1.535998-49.550167h150.129611a24.860417 24.860417 0 0 1 2.389331 49.550167h-2.503109z m0-514.104317h-148.479835C426.842548 0.001138 371.887942 54.61441 371.887942 122.141447c0 67.470147 54.954606 122.140309 122.822975 122.140308h148.422946c67.868369 0 122.822975-54.613273 122.822975-122.140308A122.538531 122.538531 0 0 0 643.020086 0.001138z m0 147.000725h-148.479835a24.860417 24.860417 0 0 1-1.535998-49.550167h150.129611a24.803528 24.803528 0 1 1 2.844441 49.379501c-1.137777 0.170666-2.161775 0.170666-2.958219 0.170666z" fill="#666fff" p-id="9593"></path></svg>