<?xml version="1.0" standalone="no"?><!DOCTYPE svg PUBLIC "-//W3C//DTD SVG 1.1//EN" "http://www.w3.org/Graphics/SVG/1.1/DTD/svg11.dtd"><svg t="1631869391121" class="icon" viewBox="0 0 1024 1024" version="1.1" xmlns="http://www.w3.org/2000/svg" p-id="7567" width="64" height="64" xmlns:xlink="http://www.w3.org/1999/xlink"><defs><style type="text/css"></style></defs><path d="M535.9 86.3l-86.2-5c4.9 3.4 9.6 7.2 13.8 11.4l47 47 23 1.3h1.8c9.7-0.1 19.1 3.8 26 10.6l397.1 397.1c14.1 14.1 14.1 37.1 0 51.3L687.2 871.3c-10.5 10.5-25.9 13.2-38.9 8.1l-40 40C643.9 945.2 694 942 726 910l271.3-271.3c35.5-35.5 35.5-93.2 0-128.7L600.1 113c-16.9-17-40.3-26.6-64.2-26.7zM219.1 385.2c-25.5 0-47.4-9-65.2-26.8-17.8-17.8-26.8-39.7-26.8-65.2s9-47.4 26.8-65.2c17.8-17.8 39.7-26.8 65.2-26.8s47.4 9 65.2 26.8c17.4 17.4 26.3 39.1 26.5 64.5 1.3 24.9-7.6 47.1-26.5 65.9-17.8 17.8-39.8 26.8-65.2 26.8z m0-136.1c-12.6 0-22.6 4.1-31.3 12.8-8.7 8.7-12.8 18.7-12.8 31.3 0 12.6 4.1 22.6 12.8 31.3 8.7 8.7 18.7 12.8 31.3 12.8 12.6 0 22.6-4.1 31.3-12.8 9.3-9.3 13.1-18.5 12.5-29.9v-1.4c0-13.1-3.8-22.7-12.4-31.3-8.9-8.8-18.8-12.8-31.4-12.8z" p-id="7568" fill="#666fff"></path><path d="M507.6 944c-23.3 0-46.6-8.9-64.4-26.6L46.1 520.3c-16.9-17-26.6-40.3-26.6-64.3L2.7 164.9v-0.9c0.2-23.2 9.4-45 25.8-61.4S66.7 77 89.9 76.8h0.9L382 93.6c23.9 0 47.3 9.7 64.2 26.7l397.1 397.1c17.2 17.2 26.7 40.1 26.7 64.4s-9.5 47.2-26.7 64.4L571.9 917.3c-17.7 17.8-41 26.7-64.3 26.7zM57.5 163.7l16.8 290.9v0.9c-0.1 9.7 3.8 19.1 10.6 26L482 878.6c14.1 14.1 37.1 14.1 51.3 0l271.3-271.3c6.8-6.8 10.6-15.9 10.6-25.6 0-9.7-3.8-18.8-10.6-25.6L407.4 159c-6.8-6.8-16.3-10.7-26-10.6h-0.9L89.6 131.6c-17.4 0.6-31.5 14.7-32.1 32.1z" p-id="7569" fill="#666fff"></path></svg>