<svg xmlns="http://www.w3.org/2000/svg" width="10.952" height="12" viewBox="0 0 10.952 12">
  <defs>
    <style>
      .cls-1 {
        fill: #666fff;
      }
    </style>
  </defs>
  <g id="检查点" transform="translate(-44.622 0.029)">
    <path id="路径_623" data-name="路径 623" class="cls-1" d="M55.3,2.356,50.306.018a.481.481,0,0,0-.416,0L44.9,2.41a.484.484,0,0,0-.279.441V4.33a7.769,7.769,0,0,0,3.524,6.53l1.4.924a1.151,1.151,0,0,0,1.257,0l1.346-.911a5.965,5.965,0,0,0,.6-.453.493.493,0,0,0,.051-.693.477.477,0,0,0-.334-.169.472.472,0,0,0-.355.114q-.254.208-.525.392l-1.341.908a.163.163,0,0,1-.171,0l-1.406-.924a6.789,6.789,0,0,1-3.081-5.717V3.149L50.1.987l4.5,2.12V4.394a6.8,6.8,0,0,1-.646,2.9.5.5,0,0,0-.017.374.486.486,0,0,0,.9.042,7.821,7.821,0,0,0,.736-3.315V2.8a.483.483,0,0,0-.278-.441Z" transform="translate(0 0)"/>
    <path id="路径_624" data-name="路径 624" class="cls-1" d="M323.34,311.384A2.928,2.928,0,1,0,320.9,312.7h.03a2.921,2.921,0,0,0,1.58-.492l1.734,1.733a.586.586,0,0,0,.829-.829Zm-1.208-2.821a1.74,1.74,0,1,1-1.229-.51A1.749,1.749,0,0,1,322.131,308.562Z" transform="translate(-270.954 -304.03)"/>
  </g>
</svg>
