<svg xmlns="http://www.w3.org/2000/svg" width="15" height="15" viewBox="0 0 15 15">
  <defs>
    <style>
      .cls-1 {
        fill: #797979;
        stroke: rgba(0,0,0,0);
        stroke-miterlimit: 10;
      }

      .cls-2 {
        fill: none;
        opacity: 0.3;
      }
    </style>
  </defs>
  <g id="jiqiren" transform="translate(0.5 0.5)">
    <path id="Clip_2" data-name="Clip 2" class="cls-2" d="M0,0H14V14H0Z"/>
    <path id="减去_17" data-name="减去 17" class="cls-1" d="M-1713.547,1881h-8.908a1.215,1.215,0,0,1-.9-.411,1.461,1.461,0,0,1-.374-.99v-.7h-.634a.633.633,0,0,1-.456-.21.71.71,0,0,1-.182-.465V1876.1a.671.671,0,0,1,.635-.7h.636a4.7,4.7,0,0,1,4.453-4.9h.64v-.889a1.426,1.426,0,0,1-.635-1.211,1.487,1.487,0,0,1,.374-.99,1.223,1.223,0,0,1,.9-.409,1.222,1.222,0,0,1,.9.411,1.483,1.483,0,0,1,.373.989,1.425,1.425,0,0,1-.635,1.212v.888h.635a4.7,4.7,0,0,1,4.454,4.9h.636a.671.671,0,0,1,.636.7v2.12a.71.71,0,0,1-.183.47.632.632,0,0,1-.455.21h-.635v.7a1.459,1.459,0,0,1-.374.99A1.223,1.223,0,0,1-1713.547,1881Zm-2.453-6a1,1,0,0,0-1,1v1a1,1,0,0,0,1,1,1,1,0,0,0,1-1v-1A1,1,0,0,0-1716,1875Zm-4,0a1,1,0,0,0-1,1v1a1,1,0,0,0,1,1,1,1,0,0,0,1-1v-1A1,1,0,0,0-1720,1875Z" transform="translate(1725 -1867)"/>
  </g>
</svg>
