<svg width="159" height="40" viewBox="0 0 159 40" fill="none" xmlns="http://www.w3.org/2000/svg">
<path d="M41.1328 10.8477H45.3438V27.377H55.3242V31H41.1328V10.8477Z" fill="#666FFF"/>
<path d="M65.5923 23.7539C65.3463 23.9089 65.0956 24.0365 64.8404 24.1367C64.5943 24.2279 64.2525 24.3145 63.815 24.3965L62.94 24.5605C62.1197 24.7064 61.5318 24.8841 61.1763 25.0938C60.5748 25.4492 60.274 26.0007 60.274 26.748C60.274 27.4134 60.4563 27.8965 60.8209 28.1973C61.1946 28.4889 61.6457 28.6348 62.1744 28.6348C63.0129 28.6348 63.7831 28.3887 64.4849 27.8965C65.1959 27.4043 65.565 26.5065 65.5923 25.2031V23.7539ZM63.2271 21.9355C63.9472 21.8444 64.4621 21.7305 64.772 21.5938C65.328 21.3568 65.606 20.9876 65.606 20.4863C65.606 19.8757 65.3918 19.4564 64.9634 19.2285C64.5442 18.9915 63.9244 18.873 63.1041 18.873C62.1835 18.873 61.5318 19.1009 61.149 19.5566C60.8755 19.8939 60.6933 20.3496 60.6021 20.9238H56.8423C56.9244 19.6204 57.289 18.5495 57.9361 17.7109C58.966 16.3984 60.7343 15.7422 63.2408 15.7422C64.8723 15.7422 66.3215 16.0658 67.5884 16.7129C68.8554 17.36 69.4888 18.5814 69.4888 20.377V27.2129C69.4888 27.6868 69.4979 28.2611 69.5162 28.9355C69.5435 29.446 69.621 29.7923 69.7486 29.9746C69.8762 30.1569 70.0676 30.3073 70.3228 30.4258V31H66.0845C65.966 30.6992 65.884 30.4167 65.8384 30.1523C65.7929 29.888 65.7564 29.5872 65.7291 29.25C65.1913 29.8333 64.5715 30.3301 63.8697 30.7402C63.0311 31.2233 62.0832 31.4648 61.0259 31.4648C59.677 31.4648 58.5604 31.082 57.6763 30.3164C56.8013 29.5417 56.3638 28.4479 56.3638 27.0352C56.3638 25.2031 57.0702 23.877 58.483 23.0566C59.2577 22.61 60.397 22.291 61.9009 22.0996L63.2271 21.9355Z" fill="#666FFF"/>
<path d="M80.4542 15.7695C82.4139 15.7695 83.9451 16.4759 85.048 17.8887C86.1599 19.3014 86.7159 21.1243 86.7159 23.3574C86.7159 25.6725 86.1691 27.5911 85.0753 29.1133C83.9816 30.6354 82.4549 31.3965 80.4952 31.3965C79.2648 31.3965 78.2758 31.1504 77.5284 30.6582C77.0818 30.3665 76.5987 29.8561 76.0792 29.127V31H72.2648V10.875H76.1476V18.0391C76.6398 17.3464 77.1821 16.8177 77.7745 16.4531C78.4764 15.9974 79.3696 15.7695 80.4542 15.7695ZM79.4562 28.1836C80.4588 28.1836 81.2381 27.778 81.7941 26.9668C82.35 26.1556 82.628 25.0892 82.628 23.7676C82.628 22.7103 82.4913 21.8353 82.2179 21.1426C81.6984 19.8301 80.7413 19.1738 79.3468 19.1738C77.934 19.1738 76.9633 19.8164 76.4347 21.1016C76.1612 21.7852 76.0245 22.6693 76.0245 23.7539C76.0245 25.0299 76.3071 26.0872 76.8722 26.9258C77.4373 27.7643 78.2986 28.1836 79.4562 28.1836Z" fill="#666FFF"/>
<path d="M94.8376 18.9141C93.9352 18.9141 93.2334 19.1966 92.7321 19.7617C92.2399 20.3268 91.93 21.0924 91.8024 22.0586H97.8591C97.7953 21.0286 97.4808 20.2493 96.9157 19.7207C96.3597 19.1829 95.667 18.9141 94.8376 18.9141ZM94.8376 15.7012C96.0772 15.7012 97.1937 15.9336 98.1872 16.3984C99.1807 16.8633 100.001 17.597 100.648 18.5996C101.231 19.4837 101.61 20.5091 101.783 21.6758C101.883 22.3594 101.924 23.3438 101.906 24.6289H91.7067C91.7614 26.1237 92.2308 27.1719 93.1149 27.7734C93.6527 28.1471 94.2998 28.334 95.0563 28.334C95.8584 28.334 96.5101 28.1061 97.0114 27.6504C97.2848 27.4043 97.5264 27.0625 97.736 26.625H101.715C101.614 27.5091 101.154 28.4069 100.334 29.3184C99.0576 30.7676 97.2712 31.4922 94.9743 31.4922C93.0785 31.4922 91.4059 30.8815 89.9567 29.6602C88.5075 28.4388 87.7829 26.4518 87.7829 23.6992C87.7829 21.1198 88.4346 19.1419 89.738 17.7656C91.0505 16.3893 92.7503 15.7012 94.8376 15.7012Z" fill="#666FFF"/>
<path d="M107.963 31H104.067V10.8477H107.963V31Z" fill="#666FFF"/>
<path d="M115.62 14.3477V18.791H120.569C121.453 18.791 122.169 18.627 122.716 18.2988C123.272 17.9616 123.55 17.3691 123.55 16.5215C123.55 15.5827 123.185 14.9629 122.456 14.6621C121.827 14.4525 121.025 14.3477 120.05 14.3477H115.62ZM115.62 22.127V27.5H120.569C121.453 27.5 122.141 27.3815 122.634 27.1445C123.527 26.707 123.973 25.8685 123.973 24.6289C123.973 23.5807 123.54 22.8607 122.675 22.4688C122.192 22.25 121.512 22.1361 120.637 22.127H115.62ZM121.389 10.8477C123.86 10.8841 125.61 11.5996 126.639 12.9941C127.259 13.8509 127.569 14.8763 127.569 16.0703C127.569 17.3008 127.259 18.2897 126.639 19.0371C126.293 19.4564 125.783 19.8392 125.108 20.1855C126.138 20.5592 126.913 21.1517 127.432 21.9629C127.961 22.7741 128.225 23.7585 128.225 24.916C128.225 26.11 127.925 27.181 127.323 28.1289C126.94 28.7578 126.462 29.2865 125.887 29.7148C125.24 30.207 124.475 30.5443 123.591 30.7266C122.716 30.9089 121.763 31 120.733 31H111.6V10.8477H121.389Z" fill="#666FFF"/>
<path d="M136.771 18.9141C135.869 18.9141 135.167 19.1966 134.665 19.7617C134.173 20.3268 133.863 21.0924 133.736 22.0586H139.792C139.729 21.0286 139.414 20.2493 138.849 19.7207C138.293 19.1829 137.6 18.9141 136.771 18.9141ZM136.771 15.7012C138.01 15.7012 139.127 15.9336 140.12 16.3984C141.114 16.8633 141.934 17.597 142.581 18.5996C143.165 19.4837 143.543 20.5091 143.716 21.6758C143.816 22.3594 143.857 23.3438 143.839 24.6289H133.64C133.695 26.1237 134.164 27.1719 135.048 27.7734C135.586 28.1471 136.233 28.334 136.99 28.334C137.792 28.334 138.443 28.1061 138.945 27.6504C139.218 27.4043 139.46 27.0625 139.669 26.625H143.648C143.548 27.5091 143.087 28.4069 142.267 29.3184C140.991 30.7676 139.204 31.4922 136.908 31.4922C135.012 31.4922 133.339 30.8815 131.89 29.6602C130.441 28.4388 129.716 26.4518 129.716 23.6992C129.716 21.1198 130.368 19.1419 131.671 17.7656C132.984 16.3893 134.684 15.7012 136.771 15.7012Z" fill="#666FFF"/>
<path d="M151.797 18.9141C150.894 18.9141 150.193 19.1966 149.691 19.7617C149.199 20.3268 148.889 21.0924 148.762 22.0586H154.818C154.754 21.0286 154.44 20.2493 153.875 19.7207C153.319 19.1829 152.626 18.9141 151.797 18.9141ZM151.797 15.7012C153.036 15.7012 154.153 15.9336 155.146 16.3984C156.14 16.8633 156.96 17.597 157.607 18.5996C158.191 19.4837 158.569 20.5091 158.742 21.6758C158.842 22.3594 158.883 23.3438 158.865 24.6289H148.666C148.721 26.1237 149.19 27.1719 150.074 27.7734C150.612 28.1471 151.259 28.334 152.016 28.334C152.818 28.334 153.469 28.1061 153.971 27.6504C154.244 27.4043 154.486 27.0625 154.695 26.625H158.674C158.573 27.5091 158.113 28.4069 157.293 29.3184C156.017 30.7676 154.23 31.4922 151.934 31.4922C150.038 31.4922 148.365 30.8815 146.916 29.6602C145.467 28.4388 144.742 26.4518 144.742 23.6992C144.742 21.1198 145.394 19.1419 146.697 17.7656C148.01 16.3893 149.71 15.7012 151.797 15.7012Z" fill="#666FFF"/>
<path opacity="0.8" d="M0 15H19.5C26.4036 15 32 20.5964 32 27.5C32 34.4036 26.4036 40 19.5 40H0V15Z" fill="url(#paint0_linear)"/>
<path d="M0 0H15.5C22.4036 0 28 5.59644 28 12.5C28 19.4036 22.4036 25 15.5 25H0V0Z" fill="url(#paint1_linear)"/>
<rect y="13" width="14" height="27" fill="white" fill-opacity="0.5"/>
<rect x="9.78516" y="8.54163" width="8.07576" height="8.07576" fill="#F0CE6C"/>
<defs>
<linearGradient id="paint0_linear" x1="-1.90735e-07" y1="40" x2="28.0027" y2="18.1226" gradientUnits="userSpaceOnUse">
<stop stop-color="#505AF8"/>
<stop offset="1" stop-color="#8A6BFB"/>
</linearGradient>
<linearGradient id="paint1_linear" x1="8.19736e-08" y1="25" x2="23.1574" y2="2.10321" gradientUnits="userSpaceOnUse">
<stop stop-color="#666FFF"/>
<stop offset="1" stop-color="#543AFC"/>
</linearGradient>
</defs>
</svg>
