<svg xmlns="http://www.w3.org/2000/svg" xmlns:xlink="http://www.w3.org/1999/xlink" width="16" height="16" viewBox="0 0 16 16">
  <defs>
    <style>
      .cls-1 {
        fill: none;
      }

      .cls-2 {
        clip-path: url(#clip-path);
      }

      .cls-3 {
        fill: rgba(0,0,0,0);
      }

      .cls-4 {
        fill: #999;
      }
    </style>
    <clipPath id="clip-path">
      <path id="路径_606" data-name="路径 606" class="cls-1" d="M0,0H16V-16H0Z" transform="translate(0 16)"/>
    </clipPath>
  </defs>
  <g id="icon_must" transform="translate(0 16)">
    <g id="组_975" data-name="组 975" class="cls-2" transform="translate(0 -16)">
      <path id="路径_605" data-name="路径 605" class="cls-3" d="M-5-21H21V5H-5Z" transform="translate(0 16)"/>
    </g>
    <path id="减去_16" data-name="减去 16" class="cls-4" d="M-1712,21813a7.007,7.007,0,0,1-7-7,7,7,0,0,1,7-7,7.007,7.007,0,0,1,7,7A7.009,7.009,0,0,1-1712,21813Zm-1.8-4.543v0c.055.9.4,1.191,1.423,1.191h1.451c.981,0,1.3-.443,1.44-1.977a3.093,3.093,0,0,1-.969-.416c-.064,1.139-.124,1.406-.558,1.406h-1.259c-.428,0-.487-.059-.487-.477v-.508a15.387,15.387,0,0,0,3.87-4.791l-1-.389a13.3,13.3,0,0,1-2.874,3.871v-2.5h-1.051v3.389a11.2,11.2,0,0,1-2.168,1.309,6.6,6.6,0,0,1,.646.777,11,11,0,0,0,1.531-.885Zm4.412-3.658-.887.422a11.355,11.355,0,0,1,1.193,2.529l.942-.482a10.69,10.69,0,0,0-1.248-2.469Zm-5.737-.553a8.643,8.643,0,0,1-.87,2.732l.953.355a9.244,9.244,0,0,0,.849-2.852l-.931-.236Zm2.053-2.244-.64.717c.61.424,1.457,1.064,1.971,1.49l.646-.8c-.5-.387-1.33-.992-1.976-1.406Z" transform="translate(1720 -21814)"/>
  </g>
</svg>
