<svg xmlns="http://www.w3.org/2000/svg" width="14" height="14" viewBox="0 0 14 14">
  <defs>
    <style>
      .cls-1 {
        fill: #333;
      }
    </style>
  </defs>
  <path id="icon_calendar" class="cls-1" d="M14.352,6.65H12.6V8.4h1.75V6.65Zm7,0H19.6V8.4h1.75V6.65Zm1.75.875h-.875V8.4a.875.875,0,0,1-.875.875H19.6a.874.874,0,0,1-.875-.875V7.525h-3.5V8.4a.875.875,0,0,1-.875.875H12.6a.874.874,0,0,1-.875-.875V7.525h-.875a.874.874,0,0,0-.875.875V19.775a.874.874,0,0,0,.875.875H23.1a.875.875,0,0,0,.875-.875V8.4A.875.875,0,0,0,23.1,7.525Zm-8.75,10.5H12.6v-1.75h1.75v1.75Zm0-3.5H12.6v-1.75h1.75v1.75Zm3.5,3.5H16.1v-1.75h1.75Zm0-3.5H16.1v-1.75h1.75v1.75Zm3.5,3.5H19.6v-1.75h1.75Zm0-3.5H19.6v-1.75h1.75v1.75Z" transform="translate(-9.977 -6.65)"/>
</svg>
